<?xml version="1.0" encoding="UTF-8"?>
<svg id="Calque_4" data-name="Calque 4" xmlns="http://www.w3.org/2000/svg" viewBox="0 0 472.75 473.39">
  <defs>
    <style>
      .cls-1 {
        fill: #bf6f7e;
        stroke-width: 0px;
      }
    </style>
  </defs>
  <path class="cls-1" d="M240.83,218.27c68.87-4.22,150,81,165,160s-1,87-25,94-77-21-105-26-62-11-113,14-99,12-98-35,36.36-127,71.68-160,55.32-44,104.32-47Z"/>
  <path class="cls-1" d="M368.83,207.27c-3.86,44.39,8.82,101.94,48,108s57.17-58.26,55.85-97.15c-1.39-40.96-8.85-96.85-48.85-96.85-33,0-53,63-55,86Z"/>
  <path class="cls-1" d="M253.02,86.16c-3.86,44.39,8.82,101.94,48,108s57.17-58.26,55.85-97.15c-1.39-40.96-9.03-93.09-48.85-96.85s-53,63-55,86Z"/>
  <path class="cls-1" d="M121.4,93.58c-.93,44.54,15.51,101.14,55,104.61s53.22-61.9,49.34-100.61c-4.08-40.78-15.22-96.27-55.11-93.43-43.8,3.12-48.74,66.35-49.23,89.43Z"/>
  <path class="cls-1" d="M.04,207.29c-.93,44.54,15.51,101.14,55,104.61,39.49,3.47,53.22-61.9,49.34-100.61-4.08-40.78-15.22-96.27-55.11-93.43C5.47,120.98.52,184.21.04,207.29Z"/>
</svg>