<?xml version="1.0" encoding="UTF-8"?>
<svg id="patte-coeur-morph" xmlns="http://www.w3.org/2000/svg" viewBox="0 0 472.83 495.49">
  <defs>
    <style>
      .cls-1 {
        fill: #bf6f7e;
        stroke-width: 0px;
      }
    </style>
  </defs>
  <path class="cls-1" d="m88.71,316.79c-2-48.78,40.12-73.36,68.63-74.29,30.88-1.01,43.16,3.54,79.24,39.62,30.87-37.09,58.46-41.34,78.98-39.92,28.46,1.96,69.34,25.47,68.63,74.29-.71,48.82-98.34,129.47-147.87,179-59.43-54.48-145.75-133.01-147.61-178.7Z"/>
  <path class="cls-1" d="m242.67,204.3c59.02-4.22,128.55,81.01,141.4,160.03,12.85,79.01-.86,87.02-21.42,94.02-20.57,7-65.99-21-89.98-26s-53.13-11-96.84,14c-43.71,25-84.84,12-83.99-35.01.86-47.01,31.16-127.02,61.43-160.03,30.27-33.01,47.41-44.01,89.4-47.01h0Z"/>
  <path class="cls-1" d="m368.89,207.3c-3.86,44.4,8.82,101.96,48.01,108.02,39.19,6.06,57.18-58.27,55.86-97.17-1.39-40.97-8.85-96.87-48.86-96.87-33.01,0-53.01,63.01-55.01,86.02h0Z"/>
  <path class="cls-1" d="m253.06,86.17c-3.86,44.4,8.82,101.96,48.01,108.02,39.19,6.06,57.18-58.27,55.86-97.17-1.39-40.97-9.03-93.11-48.86-96.87-39.83-3.76-53.01,63.01-55.01,86.02h0Z"/>
  <path class="cls-1" d="m121.42,93.59c-.93,44.55,15.51,101.16,55.01,104.63s53.23-61.91,49.35-100.63c-4.08-40.79-15.22-96.29-55.12-93.45-43.81,3.12-48.75,66.36-49.24,89.45Z"/>
  <path class="cls-1" d="m.04,207.32c-.93,44.55,15.51,101.16,55.01,104.63,39.5,3.47,53.23-61.91,49.35-100.63-4.08-40.79-15.22-96.29-55.12-93.45C5.47,120.99.52,184.24.04,207.32Z"/>
</svg>